<svg width="83" height="83" viewBox="0 0 83 83" fill="none" xmlns="http://www.w3.org/2000/svg">
<g clip-path="url(#clip0_14_134)">
<g clip-path="url(#clip1_14_134)">
<path d="M82.2412 15.9116C81.6383 15.6837 80.962 15.9901 80.7341 16.5929C80.4048 17.4693 80.0349 18.1862 79.6474 18.7612C79.3106 19.2601 78.9611 19.6502 78.6114 19.9593C78.6114 19.9264 78.614 19.8909 78.614 19.858C78.614 18.9867 78.495 18.209 78.2745 17.5251C77.9401 16.5017 77.35 15.6887 76.6179 15.1618C75.8859 14.63 75.0348 14.3892 74.2166 14.3892C73.32 14.3892 72.4511 14.6679 71.7342 15.1972C71.3745 15.4606 71.0579 15.7874 70.8071 16.1749C70.5538 16.5625 70.3689 17.0133 70.2829 17.4946C70.2397 17.7175 70.2221 17.943 70.2221 18.1659C70.2221 18.8777 70.4197 19.5591 70.7389 20.1644C71.2202 21.0788 71.9776 21.8463 72.897 22.411C73.4365 22.7353 74.0344 22.9886 74.6726 23.1456C74.6371 23.176 74.6016 23.209 74.5611 23.2419C73.5961 24.0398 72.2587 24.7111 70.8478 25.1719C62.304 13.3683 43.3803 9.35103 27.4176 18.2367C25.6015 19.2525 23.9754 20.301 22.4935 21.3523C18.4889 16.5322 8.40767 15.7266 9.70714 19.4778C10.8824 22.8721 12.6151 26.598 13.418 28.8042C10.3911 31.36 7.58707 33.3356 3.9067 34.0195C0.545526 34.6477 -0.452581 35.5393 0.178186 38.8246L1.56876 49.8202C1.56876 49.8202 5.48727 52.0847 6.87784 52.8521C9.94268 54.5492 15.9736 58.2422 24.8872 60.9881L28.2662 71.586H36.7238V63.5995C40.1002 64.0655 43.7324 64.3442 47.6282 64.3442C49.6496 64.3442 51.5518 64.205 53.34 63.9516V71.586H61.795L65.7211 59.2707C75.0729 52.6647 77.3779 40.8434 74.0749 31.3447C73.5657 29.8857 72.9225 28.4976 72.1599 27.1933C73.4213 26.7298 74.6295 26.1193 75.6681 25.3467C76.4458 24.7641 77.1297 24.0903 77.6514 23.2975C77.7021 23.219 77.7501 23.1404 77.7983 23.0569C77.8819 23.0316 77.963 23.0138 78.044 22.9835C79.0217 22.639 79.9665 22.0082 80.7949 21.0887C81.6283 20.1642 82.3451 18.9534 82.9251 17.4184C83.1531 16.8158 82.8467 16.1397 82.2412 15.9116ZM68.0895 51.7151C63.9583 57.5257 56.8811 60.6008 47.6282 60.6008C28.208 60.6008 15.8143 53.5972 9.85676 50.2334C9.43123 49.9902 9.04119 49.7699 8.68909 49.5773C7.91145 49.1468 6.28776 48.2146 5.04925 47.5054L3.87898 38.2373L3.85612 38.1183C3.83845 38.027 3.82322 37.9436 3.81057 37.8701C4.01321 37.8194 4.26902 37.7638 4.5908 37.703C10.1101 36.6772 13.935 33.3437 17.9825 29.8178C19.6467 28.3665 21.4349 26.8086 23.5018 25.2535L24.0616 25.0179C24.0566 24.9622 24.049 24.909 24.0413 24.8558C25.5966 23.7185 27.3064 22.5889 29.2415 21.5097C34.3529 18.6626 40.0673 17.1607 45.764 17.1607C54.9434 17.1607 63.1882 20.9752 67.8135 27.3685L68.4113 28.1943L68.9255 29.0759C69.5766 30.1954 70.1187 31.3707 70.5366 32.5764C72.7983 39.0782 71.8612 46.411 68.0895 51.7151ZM76.2534 20.4356C76.2381 20.6206 76.2102 20.8003 76.1647 20.9777C76.1418 20.9777 76.1191 20.9803 76.0963 20.9803C75.6252 20.9803 75.1616 20.884 74.731 20.7168C74.0826 20.461 73.5126 20.0355 73.1302 19.5592C72.9376 19.3211 72.7933 19.0729 72.697 18.8348C72.6057 18.5992 72.5628 18.3737 72.5628 18.1661C72.5628 18.08 72.5704 17.9963 72.583 17.9153C72.616 17.7405 72.6793 17.5911 72.768 17.4518C72.9022 17.2441 73.1075 17.0642 73.3607 16.9326C73.6165 16.8034 73.918 16.7299 74.2168 16.7299C74.4599 16.7299 74.7005 16.7755 74.921 16.8744C75.0881 16.9454 75.2478 17.0467 75.3973 17.1809C75.6202 17.3861 75.833 17.6749 75.9976 18.1054C76.1597 18.536 76.2736 19.111 76.2736 19.8583C76.2736 20.0404 76.266 20.2329 76.2534 20.4356Z" fill="black"/>
<path d="M22.1774 35.9373H21.9773C20.9439 35.9373 20.1055 36.7757 20.1055 37.8117V43.2703C20.1055 44.3037 20.9439 45.1422 21.9773 45.1422H22.1774C23.2134 45.1422 24.0519 44.3037 24.0519 43.2703V37.8117C24.0519 36.7755 23.2134 35.9373 22.1774 35.9373Z" fill="black"/>
</g>
</g>
<defs>
<clipPath id="clip0_14_134">
<rect width="83" height="83" fill="white"/>
</clipPath>
<clipPath id="clip1_14_134">
<rect width="83" height="83" fill="white" transform="translate(0 1)"/>
</clipPath>
</defs>
</svg>
