<svg width="83" height="83" viewBox="0 0 83 83" fill="none" xmlns="http://www.w3.org/2000/svg">
<g clip-path="url(#clip0_14_100)">
<g clip-path="url(#clip1_14_100)">
<path d="M39.6693 57.8184C49.8484 62.7335 63.3942 59.665 68.0281 49.777C71.3077 42.779 61.0341 37.2041 55.79 38.4738C51.8321 39.4321 49.4766 44.6629 46.9235 42.7209C44.9601 35.363 41.4789 25.7983 28.052 23.2792C23.6736 22.4579 17.3324 23.9578 21.2344 29.1816C24.1726 33.1139 28.5019 35.0264 32.8764 37.0562C34.194 37.6681 35.229 39.1472 36.6402 39.5369C36.976 39.6294 37.7059 39.3889 37.6661 39.7342C37.579 40.4743 23.6337 33.3652 22.4356 38.2458C21.5703 41.7704 31.6281 43.7881 33.7585 44.1967C33.8923 44.2222 34.7966 44.2809 34.7831 44.3936C34.7126 44.9991 26.7663 43.6134 25.4284 46.4686C23.6391 50.2851 30.3297 50.613 32.3898 50.3959C34.1114 50.214 35.8575 50.1665 37.5341 49.8533C37.5895 49.8432 40.2864 49.5543 35.1149 50.5445C30.5354 51.4214 18.7738 53.6543 18.4597 55.466C18.1456 57.2777 19.7218 57.789 20.5992 59.4228C21.4768 61.0565 22.1026 61.3827 23.0195 62.223C23.9362 63.0632 29.6209 54.7715 35.7003 56.7998M67.1089 42.4946C72.2358 44.5183 73.1619 42.3763 68.4699 45.2618M60.589 44.5764C60.5442 44.4527 60.499 44.3286 60.4538 44.2046" stroke="black" stroke-opacity="0.9" stroke-width="2.56" stroke-linecap="round" stroke-linejoin="round"/>
</g>
</g>
<defs>
<clipPath id="clip0_14_100">
<rect width="83" height="83" fill="white"/>
</clipPath>
<clipPath id="clip1_14_100">
<rect width="83" height="83" fill="white" transform="translate(0 1)"/>
</clipPath>
</defs>
</svg>
