<svg width="83" height="83" viewBox="0 0 83 83" fill="none" xmlns="http://www.w3.org/2000/svg">
<g clip-path="url(#clip0_14_117)">
<g clip-path="url(#clip1_14_117)">
<g clip-path="url(#clip2_14_117)">
<path d="M47.9463 12.9226H47.9484C47.9498 12.9226 47.9519 12.9213 47.9535 12.9213L47.9463 12.9226Z" fill="black"/>
<path d="M79.0933 45.3032C79.4505 44.2536 80.1723 42.0877 80.9047 39.5959C81.4162 37.8558 81.9296 35.9688 82.3222 34.1968C82.7123 32.4154 82.9938 30.7889 82.9998 29.3775C82.9966 28.8273 82.9611 28.3038 82.8016 27.7322C82.7187 27.4464 82.6019 27.1421 82.4008 26.8268C82.2026 26.5143 81.9035 26.1831 81.4995 25.9427C80.9341 25.6036 80.3323 25.498 79.8236 25.4993C79.0251 25.5073 78.3655 25.7143 77.7037 25.98C76.5579 26.4554 75.3995 27.1819 74.1816 28.0551C72.3655 29.3666 70.4599 31.017 68.7746 32.6316C67.6842 33.6786 66.7153 34.6867 65.9041 35.6083C59.8795 32.0855 54.4919 29.4601 51.9773 28.2797C52.0713 27.7856 52.177 27.2088 52.283 26.5623C52.6008 24.6179 52.926 22.1368 52.9281 19.8292C52.9195 18.343 52.8146 16.9408 52.3359 15.6308C52.0888 14.9791 51.7309 14.3167 51.1085 13.7584C50.4984 13.1949 49.5776 12.8357 48.7041 12.8504C48.4498 12.8504 48.1967 12.8757 47.9484 12.9224C46.5384 13.184 45.0753 13.765 43.4823 14.5448C38.8323 16.8458 33.0856 20.9961 28.0096 24.9623C22.184 26.5808 15.8976 29.3116 10.7182 32.6595C8.06802 34.3756 5.70722 36.2504 3.84961 38.2708C1.99994 40.2913 0.613908 42.472 0.105857 44.8878L0 45.3981L0.151572 45.8975C1.40014 50.0119 4.07089 53.4813 7.47535 56.403C12.5954 60.7884 19.4212 64.0455 26.3893 66.5547C33.3574 69.0573 40.475 70.7865 46.1464 71.955C46.764 72.0819 47.3496 72.15 47.9145 72.15C48.7251 72.15 49.5071 72.0072 50.2114 71.6812C51.2804 71.1993 52.053 70.2804 52.4315 69.3671C52.8242 68.4455 52.9276 67.5268 52.9311 66.6521C52.9258 65.0602 52.5666 63.5487 52.23 62.3789C52.2138 62.3242 52.1992 62.2827 52.184 62.2307C54.7747 61.0089 60.0301 58.433 65.8997 55.001C66.4092 55.579 66.9834 56.1921 67.6157 56.8344C69.3951 58.6359 71.5711 60.6002 73.6604 62.168C74.7086 62.9519 75.731 63.6368 76.7178 64.1603C77.2132 64.4219 77.6998 64.6439 78.202 64.8134C78.7056 64.9803 79.2243 65.1046 79.824 65.1085C80.332 65.1085 80.9316 65.0044 81.4972 64.6666L81.4472 64.6972L81.5005 64.6653C81.9045 64.4234 82.2029 64.0937 82.4012 63.7798C82.7004 63.3045 82.8205 62.8665 82.9 62.4552C82.9754 62.0412 82.9995 61.6418 83.0002 61.2307C82.9942 59.819 82.7124 58.1913 82.3225 56.4099C81.3715 52.1298 79.7043 47.0981 79.0933 45.3032ZM76.4312 59.1153C74.8488 57.9601 73.08 56.4272 71.5403 54.9449C70.0034 53.4679 68.6733 52.011 68.0042 51.1136L66.8938 49.634L65.308 50.5862C60.9674 53.1902 56.8289 55.3683 53.7843 56.8905C52.2613 57.6531 51.0119 58.25 50.1453 58.6559C49.7126 58.8603 49.3756 59.0151 49.1478 59.1179C48.9202 59.2221 48.8079 59.2714 48.8079 59.2714L46.9798 60.0847L47.7469 61.9328L47.7529 61.949C47.8017 62.0678 48.0841 62.7835 48.3439 63.7103C48.6064 64.6317 48.834 65.7801 48.8286 66.6522C48.8291 66.9901 48.7965 67.2825 48.7458 67.4908C48.6643 67.8154 48.5788 67.8955 48.5501 67.9196C48.5174 67.9381 48.4334 68.0384 47.9145 68.0477C47.6794 68.0477 47.3656 68.0182 46.9736 67.9381C41.3971 66.7912 34.4024 65.0804 27.6745 62.6554C28.6173 61.7873 29.4345 60.8153 30.107 59.7509C31.7169 57.2043 32.619 54.2225 33.1365 51.1549C33.6518 48.0849 33.7794 44.916 33.78 41.9701C33.78 41.2144 33.1677 40.6026 32.4126 40.6026C31.6574 40.6026 31.0452 41.2142 31.0452 41.9701C31.0472 45.7894 30.8141 49.901 29.84 53.4611C29.3553 55.2412 28.6882 56.8811 27.7962 58.2885C26.9795 59.5758 25.9699 60.6615 24.7269 61.5348C23.5417 61.0621 22.3698 60.5694 21.2274 60.0486C17.0015 58.1256 13.1437 55.8647 10.1476 53.2901C7.31729 50.861 5.28947 48.1809 4.26721 45.247C4.63973 43.9809 5.49778 42.5335 6.87052 41.0458C9.17134 38.5326 12.7642 35.9873 16.8125 33.84C20.8601 31.6874 25.3657 29.9113 29.4921 28.8017L29.896 28.6934L30.2253 28.4343C33.5858 25.7955 37.2842 23.0565 40.6379 20.9092C42.3131 19.8357 43.9023 18.9102 45.2966 18.2239C46.5711 17.591 47.6788 17.1808 48.4681 17.0087C48.5415 17.1876 48.6309 17.4786 48.6912 17.8567C48.7807 18.3895 48.8267 19.0759 48.826 19.8291C48.828 21.7467 48.5355 24.081 48.2352 25.8971C48.0855 26.8066 47.9359 27.5905 47.8239 28.1433C47.7678 28.4197 47.7218 28.6387 47.6897 28.7869L47.6529 28.9537L47.6415 29.0046L47.2656 30.6497L48.8079 31.3348C48.8085 31.3361 48.9202 31.3855 49.1478 31.4896C50.7394 32.2134 57.7103 35.4624 65.3072 40.0214L66.8938 40.9736L68.0042 39.4941C68.5202 38.8023 69.4384 37.7647 70.5348 36.655C72.1813 34.9858 74.2552 33.1188 76.1207 31.7221C77.0508 31.0235 77.9321 30.444 78.6359 30.0728C78.7192 30.0287 78.7902 29.9966 78.8682 29.9593C78.8035 30.8139 78.6098 32.0064 78.3173 33.3085C77.7744 35.763 76.9386 38.6127 76.2407 40.8281C75.8923 41.9366 75.5777 42.8901 75.3514 43.5628C75.2384 43.8994 75.1469 44.1665 75.0842 44.3481C75.0221 44.5297 74.9895 44.6219 74.9895 44.623L74.7506 45.3028L74.9895 45.9825C74.9895 45.9838 75.0484 46.1508 75.1565 46.4672C75.5344 47.5715 76.4877 50.4225 77.3372 53.4486C77.7618 54.9603 78.1605 56.516 78.4462 57.9009C78.6678 58.9598 78.8161 59.9267 78.8716 60.6479C78.2139 60.3264 77.3554 59.7937 76.4312 59.1153Z" fill="black"/>
<path d="M16.0177 39.7321C14.263 39.7321 12.8408 41.1542 12.8408 42.9076C12.8408 44.6636 14.263 46.0859 16.0177 46.0859C17.7717 46.0859 19.194 44.6636 19.194 42.9076C19.1939 41.1542 17.7717 39.7321 16.0177 39.7321Z" fill="black"/>
</g>
</g>
</g>
<defs>
<clipPath id="clip0_14_117">
<rect width="83" height="83" fill="white"/>
</clipPath>
<clipPath id="clip1_14_117">
<rect width="83" height="83" fill="white" transform="translate(0 1)"/>
</clipPath>
<clipPath id="clip2_14_117">
<rect width="83" height="83" fill="white" transform="translate(0 1)"/>
</clipPath>
</defs>
</svg>
