<svg width="83" height="84" viewBox="0 0 83 84" fill="none" xmlns="http://www.w3.org/2000/svg">
<path d="M77.4661 27.6444C73.0295 21.819 67.0414 18.9737 59.1591 18.946C59.1194 18.946 59.0808 18.9458 59.0411 18.9458C52.0343 18.9458 44.0989 21.1337 36.4582 23.6203C35.2103 21.3939 33.2275 20.0663 31.0209 20.0663C26.9458 20.0663 23.7772 22.9663 23.208 26.9985C13.1054 30.4236 5.01098 34.0553 3.86162 34.5772C1.78209 35.1866 -0.1971 38.0853 0.015749 40.2977C0.478084 45.1301 1.7401 48.6937 3.87427 51.1927C6.24333 53.964 9.61958 55.4255 14.1951 55.6595L17.6396 56.0088C15.9114 57.7376 14.8385 60.1356 14.8385 62.7832C14.8385 63.7423 15.6069 64.5198 16.5544 64.5198H24.7847H30.2956C33.0733 64.5198 35.3327 62.2329 35.3327 59.4219V56.7249H42.1612C40.5365 58.4385 39.5347 60.7611 39.5347 63.3176C39.5347 64.2767 40.3031 65.0542 41.2506 65.0542H66.9763C71.4347 65.0542 75.6412 62.4667 78.5169 57.9557C80.4175 54.9765 82.7345 50.1808 82.9785 44.2532C83.2215 38.3544 81.3668 32.7664 77.4661 27.6444ZM75.6335 56.0721C74.322 58.1293 71.4536 61.5806 66.9767 61.5806H43.2175C43.9572 59.0836 46.2494 57.2589 48.955 57.2589H55.0889C55.217 57.2589 55.3411 57.2437 55.4613 57.2167C56.325 57.1262 56.9985 56.3877 56.9985 55.4897C56.9985 54.5306 56.2301 53.7531 55.2826 53.7531C55.2346 53.7529 55.186 53.7532 55.1378 53.7519C55.1322 53.7518 55.1263 53.7518 55.1205 53.7516C54.28 53.736 53.4534 53.5954 52.6602 53.3327C51.4025 52.9195 50.2401 52.1973 49.2987 51.2446C47.7003 49.6269 46.8199 47.4754 46.8199 45.1867C46.8199 39.5553 50.3146 34.431 55.5162 32.436C56.4023 32.0959 56.8487 31.0933 56.5127 30.1965C56.1768 29.2996 55.1858 28.8481 54.2999 29.188C51.1258 30.4055 48.4126 32.5402 46.453 35.3614C44.4477 38.2485 43.3879 41.6461 43.3879 45.1867C43.3879 48.1959 44.4712 51.0362 46.4504 53.2517H35.3327V50.1473V48.2773C35.3327 47.3182 34.5643 46.5407 33.6167 46.5407C32.6692 46.5407 31.9008 47.3182 31.9008 48.2773V50.1473V54.9885V59.4222C31.9008 60.318 31.1807 61.0469 30.2956 61.0469H24.7847H18.5211C19.2608 58.5499 21.5531 56.7252 24.2587 56.7252H24.7834C24.7844 56.7252 24.7857 56.7254 24.7867 56.7254C24.8442 56.7254 24.9009 56.7221 24.957 56.7164C24.9672 56.7154 24.977 56.7132 24.9869 56.7121C25.0318 56.7067 25.0767 56.7003 25.1208 56.6914C25.1396 56.6876 25.1581 56.6824 25.1765 56.6778C25.2107 56.6696 25.2448 56.6616 25.2783 56.6514C25.3009 56.6447 25.3226 56.6363 25.3448 56.6286C25.3735 56.6186 25.4022 56.6086 25.4301 56.5969C25.4536 56.5872 25.4766 56.5764 25.4996 56.5656C25.5252 56.5536 25.5505 56.5416 25.5756 56.5287C25.5988 56.5165 25.621 56.5034 25.6436 56.4903C25.6674 56.4762 25.6911 56.4619 25.7142 56.4466C25.7356 56.4325 25.7569 56.4179 25.7778 56.4028C25.8008 56.3863 25.8235 56.3694 25.8456 56.3516C25.865 56.3362 25.884 56.3203 25.9026 56.3042C25.925 56.2847 25.9465 56.2647 25.9679 56.2442C25.985 56.2279 26.0015 56.2114 26.0179 56.1943C26.0393 56.1717 26.0599 56.1485 26.0803 56.1249C26.0949 56.1079 26.1093 56.0913 26.1232 56.0737C26.1434 56.0483 26.1623 56.022 26.1811 55.9955C26.1934 55.9779 26.2062 55.9605 26.2179 55.9425C26.2359 55.9149 26.2526 55.8862 26.269 55.8573C26.2797 55.8388 26.2907 55.8206 26.3008 55.8014C26.3158 55.7725 26.3295 55.7426 26.3427 55.7128C26.352 55.6923 26.362 55.6721 26.3705 55.6513C26.3821 55.6227 26.3919 55.5932 26.4021 55.564C26.4103 55.5405 26.4193 55.5176 26.4262 55.4936C26.4345 55.4664 26.4405 55.4381 26.4473 55.4103C26.4539 55.3835 26.4616 55.3571 26.4669 55.33C26.4726 55.3013 26.4758 55.2718 26.4802 55.2424C26.4841 55.2155 26.4893 55.1891 26.492 55.1619C26.492 55.1615 26.4922 55.1612 26.4922 55.1609C26.4953 55.1292 26.4953 55.0982 26.4969 55.0669C26.498 55.0405 26.5008 55.0144 26.5008 54.9876C26.5008 54.9873 26.5008 54.9871 26.5008 54.9868C26.501 54.809 26.4742 54.6362 26.4241 54.473C26.4142 54.4405 26.4016 54.4093 26.3898 54.3777C26.382 54.3568 26.3757 54.3355 26.3671 54.315C26.3512 54.2764 26.3325 54.2393 26.3139 54.2024C26.3076 54.1898 26.3022 54.1763 26.2956 54.1639C26.2768 54.1284 26.2554 54.0948 26.2343 54.0608C26.2259 54.0476 26.2187 54.0334 26.21 54.0203C26.1907 53.9913 26.1693 53.9639 26.1484 53.9363C26.1359 53.9196 26.1244 53.902 26.1111 53.886C26.0933 53.8641 26.0736 53.844 26.055 53.823C26.0367 53.8024 26.0192 53.7813 25.9999 53.7616C25.985 53.7465 25.9686 53.7329 25.9532 53.7183C25.9281 53.6947 25.9038 53.6707 25.8773 53.6487C25.8655 53.6389 25.8527 53.6302 25.8404 53.6207C25.8091 53.5959 25.778 53.571 25.7447 53.5483C25.7334 53.5404 25.7211 53.534 25.7094 53.5265C25.6745 53.5039 25.6397 53.4814 25.6034 53.4612C25.5841 53.4505 25.564 53.4422 25.5444 53.4323C25.5144 53.4172 25.4849 53.4015 25.4537 53.3882C25.2983 53.3216 25.1313 53.2774 24.9564 53.2599C24.9561 53.2599 24.9556 53.2597 24.9556 53.2597L14.494 52.1987C14.4649 52.1958 14.4357 52.1935 14.4063 52.1922C10.7957 52.0142 8.1995 50.9438 6.4698 48.9206C4.81677 46.985 3.82272 44.0547 3.4309 39.9623C3.39118 39.4254 4.29802 38.0686 4.78937 37.9194C4.9116 37.8932 5.03043 37.8535 5.14391 37.8011C5.23193 37.7606 14.0135 33.7291 25.0681 30.0323C25.9034 29.9155 26.5475 29.1918 26.5475 28.3141C26.5475 25.5473 28.4286 23.5395 31.0202 23.5395C32.1863 23.5395 33.3241 24.6348 33.92 26.3327C34.1937 27.1087 34.3384 27.9864 34.3384 28.8717C34.3384 31.763 32.819 34.2056 31.0201 34.2056C30.0725 34.2056 29.3042 34.983 29.3042 35.9421C29.3042 36.9013 30.0725 37.6787 31.0201 37.6787C34.8053 37.6787 37.7705 33.8102 37.7705 28.8716C37.7705 28.1978 37.7129 27.5379 37.6015 26.8963C44.9435 24.5095 52.5219 22.419 59.0395 22.419C59.0748 22.419 59.1107 22.419 59.1462 22.4192C65.9914 22.4433 70.9485 24.7774 74.7466 29.7646C83.4254 41.1598 78.2582 51.9581 75.6335 56.0721Z" fill="black"/>
<path d="M18.7198 37.4919C17.7723 37.4919 17.0039 38.2694 17.0039 39.2285V41.7904C17.0039 42.7495 17.7723 43.527 18.7198 43.527C19.6674 43.527 20.4358 42.7495 20.4358 41.7904V39.2287C20.4358 38.2694 19.6674 37.4919 18.7198 37.4919Z" fill="black"/>
<path d="M60.2887 28.0825C60.0923 28.0825 59.8968 28.086 59.7019 28.0929C58.7547 28.1258 58.0134 28.9296 58.046 29.8882C58.0779 30.8265 58.8395 31.5651 59.7599 31.5651C59.7797 31.5651 59.8 31.5647 59.8199 31.5641C59.9755 31.5587 60.1318 31.5559 60.2887 31.5559C61.2363 31.5559 62.0047 30.7784 62.0047 29.8193C62.0047 28.8602 61.2363 28.0825 60.2887 28.0825Z" fill="black"/>
</svg>
