<svg width="83" height="83" viewBox="0 0 83 83" fill="none" xmlns="http://www.w3.org/2000/svg">
<g clip-path="url(#clip0_14_82)">
<g clip-path="url(#clip1_14_82)">
<g clip-path="url(#clip2_14_82)">
<path d="M61.5996 34.1024C61.2015 32.8864 60.8194 31.7411 60.5453 30.6569C60.2692 29.5705 60.1011 28.5524 60.102 27.572C60.1043 26.5241 60.283 25.519 60.755 24.4358C62.1177 21.3211 62.6089 18.2554 62.6079 15.4897C62.6068 11.9403 61.8104 8.87463 61.0194 6.68145C60.2262 4.48843 59.4332 3.16319 59.3902 3.09137L58.1306 1L47.8604 14.0714H35.1753L24.9062 1.00113L23.6464 3.09056C23.6036 3.16335 22.8104 4.48859 22.0174 6.68161C21.2253 8.87479 20.43 11.9382 20.4289 15.4898C20.4279 18.2556 20.9191 21.3212 22.2818 24.4349C22.7366 25.4785 22.9185 26.5124 22.9197 27.6128C22.9281 29.6981 22.2111 32.0303 21.4083 34.5158C20.6184 37.0045 19.7438 39.6461 19.7363 42.4964C19.7363 43.2232 19.7963 43.9638 19.9344 44.7078C20.3091 46.7233 21.0627 49.1745 21.982 51.8033C23.3606 55.7401 25.1172 60.0516 26.5258 63.5303C27.229 65.2676 27.8467 66.7971 28.278 67.9478C28.4932 68.5205 28.6622 69 28.7673 69.3403C28.8196 69.5094 28.8571 69.6444 28.8743 69.7214L28.8785 69.7428C28.8764 69.8553 28.8657 70.0362 28.8443 70.2737C28.7736 71.1139 28.612 72.4659 28.6108 73.9568C28.613 75.1193 28.7062 76.3781 29.0571 77.6208C29.4062 78.8561 30.0387 80.1105 31.154 81.0663C32.1195 81.8905 33.2465 82.4332 34.3811 82.8378C36.0862 83.4373 37.8384 83.7134 39.187 83.8569C40.5346 83.9982 41.4755 84.0002 41.5183 84.0002C41.5762 83.9981 43.2266 84.0002 45.3161 83.663C46.3607 83.4918 47.5168 83.2379 48.6545 82.8377C49.7901 82.4331 50.9163 81.8903 51.8828 81.0661C52.9971 80.1104 53.6297 78.8559 53.9797 77.6207C54.3308 76.3779 54.4238 75.118 54.4248 73.9557C54.4248 72.9602 54.352 72.0332 54.2835 71.2712C54.2492 70.8902 54.215 70.5508 54.1925 70.2736C54.1711 70.038 54.1604 69.8603 54.1583 69.7469C54.1723 69.6849 54.2021 69.5638 54.2492 69.4129C54.3723 69.0041 54.5992 68.3641 54.8946 67.5858C55.9318 64.8478 57.8093 60.3598 59.5079 55.9713C60.3577 53.7758 61.1639 51.5998 61.8048 49.6539C62.4461 47.7014 62.9245 46.0061 63.115 44.6275C63.2178 43.8695 63.2638 43.13 63.2638 42.4107C63.2619 39.2627 62.3905 36.5321 61.5996 34.1024ZM34.6326 17.4421H48.512C48.5623 17.5256 48.6116 17.6135 48.6609 17.7119C49.0045 18.4054 49.2624 19.4288 49.408 20.529C49.5578 21.6294 49.6071 22.8066 49.6071 23.8493C49.6071 24.5279 49.5868 25.1476 49.5611 25.6562L46.609 25.1637L43.3669 32.1853C40.9573 30.9137 39.5038 29.1829 38.6101 27.6801C38.1017 26.8227 37.7836 26.0425 37.5964 25.4879C37.5034 25.2118 37.4422 24.9914 37.4048 24.8469L37.3685 24.6884L37.3622 24.6563L37.0773 23.0979L32.9093 24.8844C32.7766 24.3791 32.6598 23.7272 32.661 22.9556C32.6684 21.4752 33.0614 19.5839 34.6326 17.4421ZM59.7757 44.1757C59.6955 44.7762 59.4995 45.6357 59.2116 46.6375C58.2076 50.1655 56.1257 55.4328 54.3018 59.9605C53.3888 62.2285 52.5388 64.318 51.9095 65.9556C51.5949 66.7746 51.3347 67.4788 51.1442 68.0557C51.0489 68.3469 50.9698 68.6038 50.9077 68.8478C50.8777 68.972 50.8498 69.0897 50.8284 69.2181C50.807 69.3486 50.7866 69.4836 50.7856 69.6772C50.7868 69.9651 50.8072 70.2466 50.8339 70.5603C50.9142 71.4884 51.0554 72.7054 51.0554 73.9555C51.0565 74.9253 50.9665 75.8992 50.7375 76.6999C50.5073 77.5069 50.1626 78.1021 49.6885 78.5089C49.1812 78.9477 48.4115 79.3523 47.5329 79.6584C46.2162 80.1261 44.6803 80.383 43.4964 80.5061C42.9045 80.5683 42.3982 80.5993 42.0471 80.6153C41.8716 80.6218 41.7334 80.626 41.6425 80.6283L41.5418 80.6304H41.5183H41.5109C41.3825 80.6304 39.8582 80.6101 38.0899 80.3072C37.2069 80.1574 36.265 79.9346 35.4214 79.6307C34.5768 79.3267 33.8405 78.9339 33.347 78.5079C32.8738 78.1023 32.5292 77.507 32.298 76.7001C32.0701 75.9005 31.979 74.9253 31.9813 73.9567C31.9813 73.1251 32.0433 72.3009 32.1087 71.5751C32.1419 71.2112 32.1761 70.8719 32.2017 70.5603C32.2286 70.2468 32.25 69.9673 32.251 69.6772C32.2487 69.4685 32.2264 69.3218 32.2017 69.1785C32.1524 68.9088 32.0829 68.6572 31.9942 68.3683C31.6645 67.3065 31.0459 65.7309 30.2592 63.7731C29.0827 60.8479 27.5458 57.125 26.1917 53.52C24.8389 49.9236 23.6722 46.4128 23.2483 44.0966C23.1508 43.5711 23.1069 43.039 23.1069 42.4964C23.0983 40.3739 23.8155 38.0277 24.6183 35.5442C25.4061 33.0578 26.2817 30.4342 26.2902 27.6128C26.2914 26.1315 26.0302 24.5934 25.3687 23.0853C24.2138 20.4436 23.7994 17.8639 23.7985 15.4898C23.7975 12.449 24.4899 9.75034 25.1868 7.82707C25.2735 7.58618 25.3602 7.35712 25.4458 7.142L32.4825 16.0989C30.6886 18.609 30.1266 21.0396 30.134 22.9558C30.1382 25.4552 31.0182 27.0638 31.0814 27.1826L31.6358 28.1802L35.3136 26.6047C35.5524 27.2596 35.9045 28.0711 36.4354 28.9681C37.6588 31.0424 39.8381 33.5172 43.4956 35.0371L44.6193 35.506L48.0949 27.9748L51.8392 28.5978L51.9794 27.2619C51.9813 27.234 52.1345 25.774 52.1345 23.8495C52.1334 22.353 52.0457 20.5826 51.6988 18.9387C51.5234 18.1166 51.2835 17.3234 50.9293 16.5988C50.833 16.404 50.7258 16.2123 50.6102 16.0272L57.589 7.14524C58.3565 9.08164 59.2459 12.0669 59.2374 15.49C59.2374 17.8629 58.823 20.4415 57.667 23.0855C57.0002 24.6031 56.7295 26.1221 56.7326 27.5723C56.7326 28.9339 56.9605 30.2322 57.2775 31.4845C57.7558 33.3642 58.4323 35.1506 58.9644 36.9456C59.4996 38.7407 59.8945 40.527 59.8945 42.411C59.8945 42.9854 59.8581 43.572 59.7757 44.1757Z" fill="black"/>
<path d="M36.9897 72.6262C36.2918 72.6262 35.7256 73.6634 35.7256 74.9424C35.7256 76.2225 36.2918 77.2598 36.9897 77.2598C37.6876 77.2598 38.2538 76.2226 38.2538 74.9424C38.2538 73.6634 37.6876 72.6262 36.9897 72.6262Z" fill="black"/>
<path d="M46.0473 72.6262C45.3495 72.6262 44.7832 73.6634 44.7832 74.9424C44.7832 76.2225 45.3495 77.2598 46.0473 77.2598C46.7452 77.2598 47.3103 76.2226 47.3103 74.9424C47.3103 73.6634 46.7452 72.6262 46.0473 72.6262Z" fill="black"/>
<path d="M29.3062 40.3481C27.9972 40.3481 26.9365 41.4079 26.9365 42.7169C26.9365 44.0271 27.9972 45.0868 29.3062 45.0868C30.6154 45.0868 31.675 44.0271 31.675 42.7169C31.675 41.4077 30.6153 40.3481 29.3062 40.3481Z" fill="black"/>
<path d="M53.7301 40.3481C52.421 40.3481 51.3613 41.4079 51.3613 42.7169C51.3613 44.0271 52.421 45.0868 53.7301 45.0868C55.0393 45.0868 56.1 44.0271 56.1 42.7169C56.1 41.4077 55.0393 40.3481 53.7301 40.3481Z" fill="black"/>
</g>
</g>
</g>
<defs>
<clipPath id="clip0_14_82">
<rect width="83" height="83" fill="white"/>
</clipPath>
<clipPath id="clip1_14_82">
<rect width="83" height="83" fill="white" transform="translate(0 1)"/>
</clipPath>
<clipPath id="clip2_14_82">
<rect width="83" height="83" fill="white" transform="translate(0 1)"/>
</clipPath>
</defs>
</svg>
