<svg width="83" height="83" viewBox="0 0 83 83" fill="none" xmlns="http://www.w3.org/2000/svg">
<g clip-path="url(#clip0_14_38)">
<g clip-path="url(#clip1_14_38)">
<path d="M23.7132 33.2305C22.4835 33.2305 21.4883 34.2258 21.4883 35.4554C21.4883 36.6853 22.4836 37.6805 23.7132 37.6805C24.9417 37.6805 25.9382 36.6853 25.9382 35.4554C25.9382 34.2257 24.9415 33.2305 23.7132 33.2305Z" fill="black"/>
<path d="M31.9598 20.4023C32.1035 23.3251 37.4565 14.3825 37.1955 10.4543C36.9317 6.52899 31.6961 15.1667 31.9598 20.4023Z" fill="black"/>
<path d="M7.73391 45.5736L7.7278 45.5561C7.72627 45.5532 7.72474 45.5459 7.72321 45.5444C7.72321 45.5415 7.72168 45.5415 7.72168 45.5415L7.73391 45.5736Z" fill="black"/>
<path d="M14.9092 4.50318L14.9296 4.47676C14.9296 4.47676 14.9327 4.47368 14.9356 4.47092C14.9356 4.47092 14.9369 4.46638 14.9385 4.46509L14.9092 4.50318Z" fill="black"/>
<path d="M43.0488 3.68506L43.0672 3.7204L43.0704 3.72186L43.0488 3.68506Z" fill="black"/>
<path d="M41.1733 1.7417C41.1733 1.7417 41.1733 1.7417 41.1719 1.7417L41.1764 1.74413L41.1733 1.7417Z" fill="black"/>
<path d="M71.8543 64.5816C71.8718 64.2562 71.913 63.9513 71.913 63.6097C71.9144 60.6256 71.2782 57.4082 69.7611 54.0751C66.8574 47.6228 61.9925 43.9921 57.1322 41.6807L57.1161 41.6718L56.7541 41.499L57.0811 41.6574C52.2397 39.3531 47.3176 38.1117 43.6943 36.3601L43.6884 36.3556C41.3784 35.2227 40.0797 33.7085 39.2178 31.4834L39.2149 31.4761L39.209 31.4584L39.1841 31.391L39.1739 31.3632C39.0302 31.004 38.3764 28.9169 38.3954 27.4261V27.4173V27.3997C38.3941 26.9761 38.4439 26.598 38.5113 26.3576L38.5142 26.346C38.7371 25.4621 39.5141 24.049 40.4433 22.4236L40.4463 22.4192C41.3667 20.7702 42.4457 18.8134 43.0583 16.4609C43.7941 13.6129 44.1856 11.0727 44.1869 8.85663C44.1782 6.97584 43.9261 5.24337 43.0729 3.73073L43.0671 3.72052C42.6274 2.95682 42.0059 2.24889 41.1733 1.74473C40.354 1.24624 39.4232 1.01037 38.4911 1.00454V1.00292L38.4556 1V1.00292C38.4497 1.00292 38.435 1.00438 38.4291 1.00438V1.00292C38.4218 1.00292 38.4158 1.00438 38.41 1.00438C38.3646 1.00438 38.3045 1.01459 38.2006 1.02934C36.3066 1.11883 34.5479 1.97185 32.7274 3.26904L32.7187 3.27488C30.4615 4.92094 28.8198 7.07699 27.5915 9.31378C27.3306 8.69971 27.0857 8.06651 26.778 7.51242L26.7765 7.5095C25.9368 6.00999 24.9531 4.73192 23.7894 3.75132H23.7879C22.6505 2.79569 21.2272 2.06717 19.5855 2.03945V2.03199L19.4769 2.02891C17.6435 2.03037 16.006 3.0168 14.9362 4.47092C13.8722 5.89262 13.2124 7.70598 12.7888 9.95573V9.96011C12.604 10.9613 12.5234 11.9623 12.5234 12.9429V12.9504C12.5587 17.7889 14.3526 22.1744 15.6045 24.7147C13.9495 25.9987 11.635 28.0844 9.77063 30.9748L9.86157 30.8341L9.76917 30.9765C7.39021 34.6862 6.43458 37.6602 6.43458 40.2648C6.43166 42.5851 7.21141 44.3484 7.72302 45.5446C8.54524 47.5351 10.0081 48.8309 11.4797 49.4934V49.4963C12.5249 49.9638 13.4541 50.2292 14.2573 50.4784L14.1973 50.883L15.8946 51.1116C16.0208 51.1703 16.1175 51.2156 16.1556 51.2404L16.1585 51.245C16.7214 51.5966 17.2578 52.0466 17.8544 52.9115C18.4451 53.7749 19.0725 55.0691 19.6587 57.0333L19.6617 57.0406C20.2523 59.0296 21.4529 62.2953 22.514 65.6285V65.6328C23.0388 67.2672 23.5225 68.9235 23.8683 70.3716C24.2172 71.811 24.4179 73.0745 24.4107 73.7459V73.7782V73.7869L24.3989 74.0406C23.8231 74.6607 23.3729 75.3408 23.1237 76.0281C22.8071 76.893 22.706 77.7385 22.7045 78.4831L22.7061 78.5316V78.5212C22.7105 79.5707 22.891 80.478 23.0681 81.1479C23.1591 81.4821 23.2499 81.759 23.3202 81.9599L23.4097 82.1959H23.411L23.433 82.2617L23.7261 82.9698L24.1556 84.0002H34.5889H35.3966H60.2118L60.8743 83.5853L60.8845 83.5782C61.9078 82.9275 63.5493 81.5627 65.3288 79.5869C66.258 79.9636 67.2708 80.1937 68.3451 80.1937C72.889 80.1922 76.5637 76.5131 76.5652 71.9751C76.5623 68.6859 74.6275 65.8833 71.8543 64.5816ZM68.3453 76.425C67.2343 76.425 66.2346 76.0028 65.4372 75.3124L64.5916 74.5751L63.9143 75.4677C62.0647 77.9156 60.0519 79.5866 59.1125 80.23H36.663C36.7202 79.8972 36.8153 79.5177 36.9825 79.1424C37.3299 78.3816 37.878 77.6722 39.0536 77.234L38.3384 75.267C36.5868 75.8929 35.5621 77.1462 35.0667 78.2983C34.7484 79.0223 34.6166 79.6908 34.5565 80.2301H26.7323C26.6062 79.7743 26.4715 79.1528 26.4744 78.5152C26.4802 77.6576 26.6884 76.9264 27.2805 76.4191L27.4402 76.2813L27.2833 76.4162C27.6792 76.0732 27.8932 75.6292 28.0147 75.1908C28.1379 74.7481 28.1804 74.285 28.1804 73.7866C28.1657 71.3858 27.1911 67.9236 26.1049 64.485C25.0173 61.0711 23.7949 57.7308 23.276 55.9703C22.464 53.219 21.4644 51.3429 20.3415 49.993C21.775 50.1558 22.694 50.2422 22.7014 50.2422L22.8906 48.1563C22.8892 48.1563 22.1827 48.0905 21.0129 47.9615C19.9838 47.8486 18.5915 47.6786 17.0347 47.4644C16.1143 47.0554 15.2318 46.8167 14.4814 46.5894C13.6854 46.3519 13.0302 46.1146 12.5143 45.7626C11.9969 45.405 11.5731 44.9462 11.1922 44.0741C10.6705 42.8545 10.2057 41.7478 10.2043 40.2645C10.2043 38.6126 10.7965 36.3672 12.9438 33.0091C14.2497 30.9658 15.9441 29.3066 17.3073 28.1749C17.9904 27.6077 18.5882 27.1724 19.0135 26.8793C19.2245 26.7326 19.3915 26.6241 19.5059 26.5509L19.6321 26.4718L19.6687 26.4497L20.5848 25.9045L20.0219 24.9972L19.9869 24.9385C19.5911 24.3082 16.2727 18.4921 16.2933 12.9428C16.2933 12.1659 16.3562 11.3949 16.4956 10.6445C16.8444 8.74786 17.3896 7.46671 17.9466 6.73673C18.5211 6.00399 18.9961 5.81189 19.509 5.80022C20.003 5.79584 20.6522 6.04209 21.3661 6.63865C23.5209 8.40499 25.7606 13.1334 25.932 18.9995C25.545 20.8566 25.4247 22.1068 25.4203 22.1347L27.5047 22.3355C27.5047 22.3355 27.5208 22.1713 27.5633 21.8505C27.71 20.7263 28.1804 17.7872 29.3179 14.6595C30.448 11.5272 32.2583 8.24094 34.926 6.32967C36.4942 5.19069 37.7183 4.76126 38.4424 4.7731C38.7811 4.7731 39.014 4.84475 39.2206 4.96795C39.5211 5.14968 39.8187 5.50307 40.0502 6.15978C40.2803 6.80903 40.4197 7.72657 40.4181 8.85679C40.4197 10.6186 40.0896 12.8906 39.4096 15.5141C38.9493 17.3009 38.0641 18.9676 37.1582 20.5724C36.2583 22.1819 35.3304 23.718 34.8746 25.3624C34.6928 26.0323 34.6269 26.7227 34.6269 27.3998C34.6371 30.1131 35.6588 32.7133 35.6909 32.813H35.6895C36.8093 35.8281 38.9288 38.2699 42.0656 39.7607C46.2225 41.7381 51.0917 42.956 55.5022 45.0798C59.9141 47.2111 63.8336 50.1529 66.3283 55.6333C67.6328 58.5091 68.1413 61.1637 68.143 63.6099C68.143 64.5628 68.0637 65.4832 67.9231 66.3743L67.7503 67.4561L68.8407 67.5793C71.0671 67.8285 72.7983 69.6914 72.7968 71.9751C72.7924 74.43 70.8048 76.4206 68.3453 76.425Z" fill="black"/>
<path d="M69.7617 54.0752L69.7628 54.0774L69.7617 54.0752Z" fill="black"/>
</g>
</g>
<defs>
<clipPath id="clip0_14_38">
<rect width="83" height="83" fill="white"/>
</clipPath>
<clipPath id="clip1_14_38">
<rect width="83" height="83" fill="white" transform="translate(0 1)"/>
</clipPath>
</defs>
</svg>
