<svg width="95" height="63" viewBox="0 0 95 63" fill="none" xmlns="http://www.w3.org/2000/svg">
<path d="M47.7181 41.336C45.5101 41.336 43.5261 40.952 41.7661 40.184C40.0381 39.384 38.6781 38.296 37.6861 36.92C36.6941 35.512 36.1821 33.896 36.1501 32.072H40.8061C40.9661 33.64 41.6061 34.968 42.7261 36.056C43.8781 37.112 45.5421 37.64 47.7181 37.64C49.7981 37.64 51.4301 37.128 52.6141 36.104C53.8301 35.048 54.4381 33.704 54.4381 32.072C54.4381 30.792 54.0861 29.752 53.3821 28.952C52.6781 28.152 51.7981 27.544 50.7421 27.128C49.6861 26.712 48.2621 26.264 46.4701 25.784C44.2621 25.208 42.4861 24.632 41.1421 24.056C39.8301 23.48 38.6941 22.584 37.7341 21.368C36.8061 20.12 36.3421 18.456 36.3421 16.376C36.3421 14.552 36.8061 12.936 37.7341 11.528C38.6621 10.12 39.9581 9.032 41.6221 8.264C43.3181 7.496 45.2541 7.112 47.4301 7.112C50.5661 7.112 53.1261 7.896 55.1101 9.464C57.1261 11.032 58.2621 13.112 58.5181 15.704H53.7181C53.5581 14.424 52.8861 13.304 51.7021 12.344C50.5181 11.352 48.9501 10.856 46.9981 10.856C45.1741 10.856 43.6861 11.336 42.5341 12.296C41.3821 13.224 40.8061 14.536 40.8061 16.232C40.8061 17.448 41.1421 18.44 41.8141 19.208C42.5181 19.976 43.3661 20.568 44.3581 20.984C45.3821 21.368 46.8061 21.816 48.6301 22.328C50.8381 22.936 52.6141 23.544 53.9581 24.152C55.3021 24.728 56.4541 25.64 57.4141 26.888C58.3741 28.104 58.8541 29.768 58.8541 31.88C58.8541 33.512 58.4221 35.048 57.5581 36.488C56.6941 37.928 55.4141 39.096 53.7181 39.992C52.0221 40.888 50.0221 41.336 47.7181 41.336Z" fill="black"/>
</svg>
