<svg width="65" height="65" viewBox="0 0 65 65" fill="none" xmlns="http://www.w3.org/2000/svg">
<path d="M21.667 48.75L32.5003 40.4895L43.3337 48.75L39.2712 35.3437L50.1045 27.625H36.8337L32.5003 13.5416L28.167 27.625H14.8962L25.7295 35.3437L21.667 48.75ZM32.5003 59.5833C28.7538 59.5833 25.233 58.8724 21.9378 57.4505C18.6427 56.0286 15.7764 54.0989 13.3389 51.6614C10.9014 49.2239 8.97168 46.3576 7.5498 43.0625C6.12793 39.7673 5.41699 36.2465 5.41699 32.5C5.41699 28.7534 6.12793 25.2326 7.5498 21.9375C8.97168 18.6423 10.9014 15.776 13.3389 13.3385C15.7764 10.901 18.6427 8.97131 21.9378 7.54944C25.233 6.12756 28.7538 5.41663 32.5003 5.41663C36.2469 5.41663 39.7677 6.12756 43.0628 7.54944C46.358 8.97131 49.2243 10.901 51.6618 13.3385C54.0993 15.776 56.029 18.6423 57.4508 21.9375C58.8727 25.2326 59.5837 28.7534 59.5837 32.5C59.5837 36.2465 58.8727 39.7673 57.4508 43.0625C56.029 46.3576 54.0993 49.2239 51.6618 51.6614C49.2243 54.0989 46.358 56.0286 43.0628 57.4505C39.7677 58.8724 36.2469 59.5833 32.5003 59.5833Z" fill="#9C27B0"/>
</svg>
